<?xml version="1.0" encoding="utf-8"?>
<!-- Generator: Adobe Illustrator 25.1.0, SVG Export Plug-In . SVG Version: 6.00 Build 0)  -->
<svg version="1.1" id="图层_1" xmlns="http://www.w3.org/2000/svg" xmlns:xlink="http://www.w3.org/1999/xlink" x="0px" y="0px"
	 viewBox="0 0 500 500" style="enable-background:new 0 0 500 500;" xml:space="preserve">
<style type="text/css">
	.st0{fill:#F4A118;}
	.st1{opacity:0.4;}
	.st2{fill:#D24F17;}
	.st3{fill:#030101;}
	.st4{clip-path:url(#XMLID_2_);fill:#39234D;}
	.st5{clip-path:url(#XMLID_3_);fill:#39234D;}
</style>
<g>
	<path class="st0" d="M251.88,350.95h0.57c62.63,0,110.68-51.24,110.68-113.87c0,0,0-19.3,0-67.48c0-76.81-36.36-97.59-36.36-97.59
		l-36.71,26.38h-75.79L174.08,72c0,0-39.84,25.84-39.84,97.59c0,41.09,0,67.48,0,67.48C134.24,299.71,189.25,350.95,251.88,350.95z"
		/>
	<g class="st1">
		<path class="st2" d="M244.55,170.64c0-32.74,26.54-59.28,59.28-59.28s59.28,26.54,59.28,59.28c0,32.74-26.54,59.28-59.28,59.28
			S244.55,203.38,244.55,170.64z"/>
		<path class="st2" d="M136.79,170.64c0-32.74,26.54-59.28,59.28-59.28c32.74,0,59.28,26.54,59.28,59.28
			c0,32.74-26.54,59.28-59.28,59.28C163.33,229.92,136.79,203.38,136.79,170.64z"/>
	</g>
	<path class="st3" d="M272.96,209.25c0,8.71-20.41,24.3-20.41,24.3s-20.41-15.59-20.41-24.3c0-8.71,20.41-15.77,20.41-15.77
		S272.96,200.54,272.96,209.25z"/>
	<g>
		<g>
			<defs>
				<path id="XMLID_60_" d="M200.93,135.28c-19.56-0.97-36.2,13.88-37.16,33.17c-0.95,19.29,14.13,35.72,33.69,36.69
					c19.56,0.97,36.19-13.88,37.14-33.17C235.57,152.68,220.49,136.26,200.93,135.28z"/>
			</defs>
			<use xlink:href="#XMLID_60_"  style="overflow:visible;fill:#843D22;"/>
			<clipPath id="XMLID_2_">
				<use xlink:href="#XMLID_60_"  style="overflow:visible;"/>
			</clipPath>
			<path class="st4" d="M211.14,132c-15.6-0.78-28.88,11.24-29.65,26.85c-0.78,15.6,11.24,28.88,26.85,29.65
				c15.6,0.77,28.88-11.25,29.65-26.85C238.77,146.05,226.74,132.78,211.14,132z"/>
		</g>
		<g>
			<defs>
				<path id="XMLID_59_" d="M304.37,135.28c-19.56-0.97-36.19,13.88-37.15,33.17c-0.96,19.29,14.13,35.72,33.68,36.69
					c19.56,0.97,36.19-13.88,37.15-33.17C339.01,152.68,323.93,136.26,304.37,135.28z"/>
			</defs>
			<use xlink:href="#XMLID_59_"  style="overflow:visible;fill:#843D22;"/>
			<clipPath id="XMLID_3_">
				<use xlink:href="#XMLID_59_"  style="overflow:visible;"/>
			</clipPath>
			<path class="st5" d="M314.58,132c-15.6-0.78-28.88,11.24-29.66,26.85c-0.78,15.6,11.25,28.88,26.86,29.65
				c15.61,0.77,28.88-11.25,29.65-26.85C342.2,146.05,330.18,132.78,314.58,132z"/>
		</g>
	</g>
	<path class="st3" d="M378.91,321.69c0,7.44-6.03,13.48-13.48,13.48H134.56c-7.44,0-13.48-6.03-13.48-13.48v-1.99
		c0-7.44,6.03-13.48,13.48-13.48h230.88c7.44,0,13.48,6.03,13.48,13.48V321.69z"/>
	<g>
		<g>
			<path class="st2" d="M194.75,330.62c0,5.41-4.39,9.8-9.8,9.8h-1.44c-5.42,0-9.8-4.39-9.8-9.8V305.5c0-5.41,4.39-9.8,9.8-9.8h1.44
				c5.42,0,9.8,4.39,9.8,9.8V330.62z"/>
			<path class="st2" d="M215.8,330.62c0,5.41-4.39,9.8-9.81,9.8h-1.44c-5.42,0-9.81-4.39-9.81-9.8V305.5c0-5.41,4.39-9.8,9.81-9.8
				h1.44c5.42,0,9.81,4.39,9.81,9.8V330.62z"/>
		</g>
		<g>
			<path class="st2" d="M305.25,330.62c0,5.41-4.39,9.8-9.81,9.8h-1.44c-5.42,0-9.81-4.39-9.81-9.8V305.5c0-5.41,4.39-9.8,9.81-9.8
				h1.44c5.42,0,9.81,4.39,9.81,9.8V330.62z"/>
			<path class="st2" d="M326.3,330.62c0,5.41-4.39,9.8-9.81,9.8h-1.44c-5.42,0-9.81-4.39-9.81-9.8V305.5c0-5.41,4.39-9.8,9.81-9.8
				h1.44c5.42,0,9.81,4.39,9.81,9.8V330.62z"/>
		</g>
	</g>
</g>
</svg>
